<svg width="393" height="852" viewBox="0 0 393 852" fill="none" xmlns="http://www.w3.org/2000/svg">
<g clip-path="url(#clip0_21_18)">
<rect width="393" height="852" fill="#E1F9FF"/>
<path d="M420.343 212.007C507.936 256.017 561.206 327.312 569.559 415.421C579.123 516.312 520.463 609.337 415.77 590.292C47.1267 523.232 -67.1114 156.196 184.672 239.792C436.455 323.388 326.892 165.053 420.343 212.007Z" fill="url(#paint0_linear_21_18)" fill-opacity="0.2"/>
<path d="M-21.5408 189.682C-26.4049 86.3246 161.064 -104.613 181.709 1.69801C202.353 108.009 356.796 143.765 356.796 143.765C407.976 193.793 310.65 269.013 167.249 336.941C35.239 383.817 2.58034 336.034 -21.5408 189.682Z" fill="url(#paint1_linear_21_18)" fill-opacity="0.5"/>
<path d="M-340.906 695.22C-243.911 458.429 -18.6525 454.854 204.998 447.591C428.648 440.329 317.72 1376.17 155.031 1169.64C-7.65754 963.108 -461.781 990.309 -340.906 695.22Z" fill="url(#paint2_linear_21_18)" fill-opacity="0.4"/>
</g>
<defs>
<linearGradient id="paint0_linear_21_18" x1="345.293" y1="229.238" x2="187.689" y2="501.572" gradientUnits="userSpaceOnUse">
<stop stop-color="#E1F9FF"/>
<stop offset="1" stop-color="#964FBA"/>
</linearGradient>
<linearGradient id="paint1_linear_21_18" x1="190.598" y1="-5.25742" x2="112.604" y2="367.977" gradientUnits="userSpaceOnUse">
<stop stop-color="#E1F9FF"/>
<stop offset="1" stop-color="#1AE78B"/>
</linearGradient>
<linearGradient id="paint2_linear_21_18" x1="189.073" y1="431.276" x2="80" y2="772" gradientUnits="userSpaceOnUse">
<stop stop-color="#1ABBE7"/>
<stop offset="1" stop-color="#E1F9FF"/>
</linearGradient>
<clipPath id="clip0_21_18">
<rect width="393" height="852" fill="white"/>
</clipPath>
</defs>
</svg>
