<svg width="1024" height="1366" viewBox="0 0 1024 1366" fill="none" xmlns="http://www.w3.org/2000/svg">
<g clip-path="url(#clip0_19_19)">
<rect width="1024" height="1366" fill="#E1F9FF"/>
<path d="M-10.0251 431.996C-21.555 217.666 371.044 -175.841 415.857 44.809C460.67 265.459 786.5 341.5 786.5 341.5C894.949 445.848 690.832 600.579 389.552 739.622C112.009 835.162 42.61 735.698 -10.0251 431.996Z" fill="url(#paint0_linear_19_19)" fill-opacity="0.5"/>
<path d="M926.189 382.572C1063.24 451.293 1140 566.938 1140.63 712.655C1141.37 879.512 1031.43 1036.65 862.653 1010.16C268.342 916.909 135.467 313.761 535.782 440.135C936.097 566.508 779.969 309.254 926.189 382.572Z" fill="url(#paint1_linear_19_19)" fill-opacity="0.2"/>
<path d="M656.663 1429.91C827.134 1239.08 731.777 1034.97 640.439 830.692C549.1 626.414 -243.839 1135.68 13.0592 1191.59C269.957 1247.49 444.222 1667.73 656.663 1429.91Z" fill="url(#paint2_linear_19_19)" fill-opacity="0.4"/>
</g>
<defs>
<linearGradient id="paint0_linear_19_19" x1="434.5" y1="30.5" x2="271.401" y2="802.563" gradientUnits="userSpaceOnUse">
<stop stop-color="#E1F9FF"/>
<stop offset="1" stop-color="#1AE78B"/>
</linearGradient>
<linearGradient id="paint1_linear_19_19" x1="800.622" y1="414.805" x2="523.731" y2="886.914" gradientUnits="userSpaceOnUse">
<stop stop-color="#E1F9FF"/>
<stop offset="1" stop-color="#964FBA"/>
</linearGradient>
<linearGradient id="paint2_linear_19_19" x1="662.077" y1="837.872" x2="225.645" y2="1377.4" gradientUnits="userSpaceOnUse">
<stop stop-color="#1ABBE7"/>
<stop offset="1" stop-color="#E1F9FF"/>
</linearGradient>
<clipPath id="clip0_19_19">
<rect width="1024" height="1366" fill="white"/>
</clipPath>
</defs>
</svg>
